<svg xmlns="http://www.w3.org/2000/svg" viewBox="0 0 33 33">
  <rect width="100%" height="100%" fill="white"/>
  <path d="M 4 4 h 1 v 1 h -1 Z M 5 4 h 1 v 1 h -1 Z M 6 4 h 1 v 1 h -1 Z M 7 4 h 1 v 1 h -1 Z M 8 4 h 1 v 1 h -1 Z M 9 4 h 1 v 1 h -1 Z M 10 4 h 1 v 1 h -1 Z M 12 4 h 1 v 1 h -1 Z M 13 4 h 1 v 1 h -1 Z M 14 4 h 1 v 1 h -1 Z M 15 4 h 1 v 1 h -1 Z M 16 4 h 1 v 1 h -1 Z M 17 4 h 1 v 1 h -1 Z M 22 4 h 1 v 1 h -1 Z M 23 4 h 1 v 1 h -1 Z M 24 4 h 1 v 1 h -1 Z M 25 4 h 1 v 1 h -1 Z M 26 4 h 1 v 1 h -1 Z M 27 4 h 1 v 1 h -1 Z M 28 4 h 1 v 1 h -1 Z M 4 5 h 1 v 1 h -1 Z M 10 5 h 1 v 1 h -1 Z M 14 5 h 1 v 1 h -1 Z M 16 5 h 1 v 1 h -1 Z M 17 5 h 1 v 1 h -1 Z M 18 5 h 1 v 1 h -1 Z M 20 5 h 1 v 1 h -1 Z M 22 5 h 1 v 1 h -1 Z M 28 5 h 1 v 1 h -1 Z M 4 6 h 1 v 1 h -1 Z M 6 6 h 1 v 1 h -1 Z M 7 6 h 1 v 1 h -1 Z M 8 6 h 1 v 1 h -1 Z M 10 6 h 1 v 1 h -1 Z M 12 6 h 1 v 1 h -1 Z M 16 6 h 1 v 1 h -1 Z M 17 6 h 1 v 1 h -1 Z M 18 6 h 1 v 1 h -1 Z M 19 6 h 1 v 1 h -1 Z M 22 6 h 1 v 1 h -1 Z M 24 6 h 1 v 1 h -1 Z M 25 6 h 1 v 1 h -1 Z M 26 6 h 1 v 1 h -1 Z M 28 6 h 1 v 1 h -1 Z M 4 7 h 1 v 1 h -1 Z M 6 7 h 1 v 1 h -1 Z M 7 7 h 1 v 1 h -1 Z M 8 7 h 1 v 1 h -1 Z M 10 7 h 1 v 1 h -1 Z M 13 7 h 1 v 1 h -1 Z M 14 7 h 1 v 1 h -1 Z M 22 7 h 1 v 1 h -1 Z M 24 7 h 1 v 1 h -1 Z M 25 7 h 1 v 1 h -1 Z M 26 7 h 1 v 1 h -1 Z M 28 7 h 1 v 1 h -1 Z M 4 8 h 1 v 1 h -1 Z M 6 8 h 1 v 1 h -1 Z M 7 8 h 1 v 1 h -1 Z M 8 8 h 1 v 1 h -1 Z M 10 8 h 1 v 1 h -1 Z M 13 8 h 1 v 1 h -1 Z M 15 8 h 1 v 1 h -1 Z M 18 8 h 1 v 1 h -1 Z M 22 8 h 1 v 1 h -1 Z M 24 8 h 1 v 1 h -1 Z M 25 8 h 1 v 1 h -1 Z M 26 8 h 1 v 1 h -1 Z M 28 8 h 1 v 1 h -1 Z M 4 9 h 1 v 1 h -1 Z M 10 9 h 1 v 1 h -1 Z M 12 9 h 1 v 1 h -1 Z M 14 9 h 1 v 1 h -1 Z M 16 9 h 1 v 1 h -1 Z M 17 9 h 1 v 1 h -1 Z M 18 9 h 1 v 1 h -1 Z M 22 9 h 1 v 1 h -1 Z M 28 9 h 1 v 1 h -1 Z M 4 10 h 1 v 1 h -1 Z M 5 10 h 1 v 1 h -1 Z M 6 10 h 1 v 1 h -1 Z M 7 10 h 1 v 1 h -1 Z M 8 10 h 1 v 1 h -1 Z M 9 10 h 1 v 1 h -1 Z M 10 10 h 1 v 1 h -1 Z M 12 10 h 1 v 1 h -1 Z M 14 10 h 1 v 1 h -1 Z M 16 10 h 1 v 1 h -1 Z M 18 10 h 1 v 1 h -1 Z M 20 10 h 1 v 1 h -1 Z M 22 10 h 1 v 1 h -1 Z M 23 10 h 1 v 1 h -1 Z M 24 10 h 1 v 1 h -1 Z M 25 10 h 1 v 1 h -1 Z M 26 10 h 1 v 1 h -1 Z M 27 10 h 1 v 1 h -1 Z M 28 10 h 1 v 1 h -1 Z M 15 11 h 1 v 1 h -1 Z M 17 11 h 1 v 1 h -1 Z M 20 11 h 1 v 1 h -1 Z M 4 12 h 1 v 1 h -1 Z M 6 12 h 1 v 1 h -1 Z M 10 12 h 1 v 1 h -1 Z M 11 12 h 1 v 1 h -1 Z M 13 12 h 1 v 1 h -1 Z M 16 12 h 1 v 1 h -1 Z M 17 12 h 1 v 1 h -1 Z M 19 12 h 1 v 1 h -1 Z M 20 12 h 1 v 1 h -1 Z M 23 12 h 1 v 1 h -1 Z M 26 12 h 1 v 1 h -1 Z M 28 12 h 1 v 1 h -1 Z M 6 13 h 1 v 1 h -1 Z M 14 13 h 1 v 1 h -1 Z M 15 13 h 1 v 1 h -1 Z M 19 13 h 1 v 1 h -1 Z M 20 13 h 1 v 1 h -1 Z M 22 13 h 1 v 1 h -1 Z M 23 13 h 1 v 1 h -1 Z M 25 13 h 1 v 1 h -1 Z M 27 13 h 1 v 1 h -1 Z M 28 13 h 1 v 1 h -1 Z M 6 14 h 1 v 1 h -1 Z M 7 14 h 1 v 1 h -1 Z M 8 14 h 1 v 1 h -1 Z M 10 14 h 1 v 1 h -1 Z M 16 14 h 1 v 1 h -1 Z M 17 14 h 1 v 1 h -1 Z M 18 14 h 1 v 1 h -1 Z M 19 14 h 1 v 1 h -1 Z M 20 14 h 1 v 1 h -1 Z M 23 14 h 1 v 1 h -1 Z M 25 14 h 1 v 1 h -1 Z M 26 14 h 1 v 1 h -1 Z M 28 14 h 1 v 1 h -1 Z M 4 15 h 1 v 1 h -1 Z M 7 15 h 1 v 1 h -1 Z M 8 15 h 1 v 1 h -1 Z M 9 15 h 1 v 1 h -1 Z M 12 15 h 1 v 1 h -1 Z M 13 15 h 1 v 1 h -1 Z M 14 15 h 1 v 1 h -1 Z M 16 15 h 1 v 1 h -1 Z M 18 15 h 1 v 1 h -1 Z M 19 15 h 1 v 1 h -1 Z M 20 15 h 1 v 1 h -1 Z M 21 15 h 1 v 1 h -1 Z M 22 15 h 1 v 1 h -1 Z M 23 15 h 1 v 1 h -1 Z M 25 15 h 1 v 1 h -1 Z M 5 16 h 1 v 1 h -1 Z M 6 16 h 1 v 1 h -1 Z M 7 16 h 1 v 1 h -1 Z M 9 16 h 1 v 1 h -1 Z M 10 16 h 1 v 1 h -1 Z M 11 16 h 1 v 1 h -1 Z M 12 16 h 1 v 1 h -1 Z M 17 16 h 1 v 1 h -1 Z M 18 16 h 1 v 1 h -1 Z M 20 16 h 1 v 1 h -1 Z M 22 16 h 1 v 1 h -1 Z M 28 16 h 1 v 1 h -1 Z M 5 17 h 1 v 1 h -1 Z M 7 17 h 1 v 1 h -1 Z M 8 17 h 1 v 1 h -1 Z M 9 17 h 1 v 1 h -1 Z M 13 17 h 1 v 1 h -1 Z M 14 17 h 1 v 1 h -1 Z M 17 17 h 1 v 1 h -1 Z M 18 17 h 1 v 1 h -1 Z M 19 17 h 1 v 1 h -1 Z M 22 17 h 1 v 1 h -1 Z M 23 17 h 1 v 1 h -1 Z M 27 17 h 1 v 1 h -1 Z M 28 17 h 1 v 1 h -1 Z M 4 18 h 1 v 1 h -1 Z M 5 18 h 1 v 1 h -1 Z M 6 18 h 1 v 1 h -1 Z M 7 18 h 1 v 1 h -1 Z M 10 18 h 1 v 1 h -1 Z M 13 18 h 1 v 1 h -1 Z M 14 18 h 1 v 1 h -1 Z M 15 18 h 1 v 1 h -1 Z M 19 18 h 1 v 1 h -1 Z M 20 18 h 1 v 1 h -1 Z M 25 18 h 1 v 1 h -1 Z M 26 18 h 1 v 1 h -1 Z M 28 18 h 1 v 1 h -1 Z M 7 19 h 1 v 1 h -1 Z M 8 19 h 1 v 1 h -1 Z M 12 19 h 1 v 1 h -1 Z M 14 19 h 1 v 1 h -1 Z M 17 19 h 1 v 1 h -1 Z M 20 19 h 1 v 1 h -1 Z M 22 19 h 1 v 1 h -1 Z M 23 19 h 1 v 1 h -1 Z M 24 19 h 1 v 1 h -1 Z M 25 19 h 1 v 1 h -1 Z M 4 20 h 1 v 1 h -1 Z M 5 20 h 1 v 1 h -1 Z M 6 20 h 1 v 1 h -1 Z M 8 20 h 1 v 1 h -1 Z M 10 20 h 1 v 1 h -1 Z M 11 20 h 1 v 1 h -1 Z M 12 20 h 1 v 1 h -1 Z M 15 20 h 1 v 1 h -1 Z M 16 20 h 1 v 1 h -1 Z M 17 20 h 1 v 1 h -1 Z M 20 20 h 1 v 1 h -1 Z M 21 20 h 1 v 1 h -1 Z M 22 20 h 1 v 1 h -1 Z M 23 20 h 1 v 1 h -1 Z M 24 20 h 1 v 1 h -1 Z M 27 20 h 1 v 1 h -1 Z M 12 21 h 1 v 1 h -1 Z M 14 21 h 1 v 1 h -1 Z M 16 21 h 1 v 1 h -1 Z M 20 21 h 1 v 1 h -1 Z M 24 21 h 1 v 1 h -1 Z M 28 21 h 1 v 1 h -1 Z M 4 22 h 1 v 1 h -1 Z M 5 22 h 1 v 1 h -1 Z M 6 22 h 1 v 1 h -1 Z M 7 22 h 1 v 1 h -1 Z M 8 22 h 1 v 1 h -1 Z M 9 22 h 1 v 1 h -1 Z M 10 22 h 1 v 1 h -1 Z M 12 22 h 1 v 1 h -1 Z M 13 22 h 1 v 1 h -1 Z M 16 22 h 1 v 1 h -1 Z M 17 22 h 1 v 1 h -1 Z M 18 22 h 1 v 1 h -1 Z M 20 22 h 1 v 1 h -1 Z M 22 22 h 1 v 1 h -1 Z M 24 22 h 1 v 1 h -1 Z M 28 22 h 1 v 1 h -1 Z M 4 23 h 1 v 1 h -1 Z M 10 23 h 1 v 1 h -1 Z M 13 23 h 1 v 1 h -1 Z M 15 23 h 1 v 1 h -1 Z M 16 23 h 1 v 1 h -1 Z M 18 23 h 1 v 1 h -1 Z M 19 23 h 1 v 1 h -1 Z M 20 23 h 1 v 1 h -1 Z M 24 23 h 1 v 1 h -1 Z M 28 23 h 1 v 1 h -1 Z M 4 24 h 1 v 1 h -1 Z M 6 24 h 1 v 1 h -1 Z M 7 24 h 1 v 1 h -1 Z M 8 24 h 1 v 1 h -1 Z M 10 24 h 1 v 1 h -1 Z M 17 24 h 1 v 1 h -1 Z M 18 24 h 1 v 1 h -1 Z M 19 24 h 1 v 1 h -1 Z M 20 24 h 1 v 1 h -1 Z M 21 24 h 1 v 1 h -1 Z M 22 24 h 1 v 1 h -1 Z M 23 24 h 1 v 1 h -1 Z M 24 24 h 1 v 1 h -1 Z M 27 24 h 1 v 1 h -1 Z M 28 24 h 1 v 1 h -1 Z M 4 25 h 1 v 1 h -1 Z M 6 25 h 1 v 1 h -1 Z M 7 25 h 1 v 1 h -1 Z M 8 25 h 1 v 1 h -1 Z M 10 25 h 1 v 1 h -1 Z M 14 25 h 1 v 1 h -1 Z M 17 25 h 1 v 1 h -1 Z M 18 25 h 1 v 1 h -1 Z M 19 25 h 1 v 1 h -1 Z M 21 25 h 1 v 1 h -1 Z M 24 25 h 1 v 1 h -1 Z M 26 25 h 1 v 1 h -1 Z M 27 25 h 1 v 1 h -1 Z M 4 26 h 1 v 1 h -1 Z M 6 26 h 1 v 1 h -1 Z M 7 26 h 1 v 1 h -1 Z M 8 26 h 1 v 1 h -1 Z M 10 26 h 1 v 1 h -1 Z M 12 26 h 1 v 1 h -1 Z M 14 26 h 1 v 1 h -1 Z M 15 26 h 1 v 1 h -1 Z M 19 26 h 1 v 1 h -1 Z M 20 26 h 1 v 1 h -1 Z M 21 26 h 1 v 1 h -1 Z M 23 26 h 1 v 1 h -1 Z M 24 26 h 1 v 1 h -1 Z M 25 26 h 1 v 1 h -1 Z M 27 26 h 1 v 1 h -1 Z M 28 26 h 1 v 1 h -1 Z M 4 27 h 1 v 1 h -1 Z M 10 27 h 1 v 1 h -1 Z M 13 27 h 1 v 1 h -1 Z M 17 27 h 1 v 1 h -1 Z M 20 27 h 1 v 1 h -1 Z M 21 27 h 1 v 1 h -1 Z M 23 27 h 1 v 1 h -1 Z M 24 27 h 1 v 1 h -1 Z M 4 28 h 1 v 1 h -1 Z M 5 28 h 1 v 1 h -1 Z M 6 28 h 1 v 1 h -1 Z M 7 28 h 1 v 1 h -1 Z M 8 28 h 1 v 1 h -1 Z M 9 28 h 1 v 1 h -1 Z M 10 28 h 1 v 1 h -1 Z M 12 28 h 1 v 1 h -1 Z M 13 28 h 1 v 1 h -1 Z M 14 28 h 1 v 1 h -1 Z M 15 28 h 1 v 1 h -1 Z M 16 28 h 1 v 1 h -1 Z M 17 28 h 1 v 1 h -1 Z M 20 28 h 1 v 1 h -1 Z M 21 28 h 1 v 1 h -1 Z M 22 28 h 1 v 1 h -1 Z M 25 28 h 1 v 1 h -1 Z M 28 28 h 1 v 1 h -1 Z " fill="black"/>
</svg>